<?xml version="1.0" standalone="no"?>
<!DOCTYPE svg PUBLIC "-//W3C//DTD SVG 20010904//EN"
 "http://www.w3.org/TR/2001/REC-SVG-20010904/DTD/svg10.dtd">
<svg version="1.0" xmlns="http://www.w3.org/2000/svg"
 width="2553.000000pt" height="1959.000000pt" viewBox="0 0 2553.000000 1959.000000"
 preserveAspectRatio="xMidYMid meet">

<g transform="translate(0.000000,1959.000000) scale(0.100000,-0.100000)"
fill="#000000" stroke="none">
<path d="M12810 18054 c-25 -20 -74 -63 -110 -97 -36 -34 -96 -89 -134 -122
-38 -33 -103 -92 -145 -131 -42 -39 -110 -99 -151 -134 -80 -66 -160 -136
-274 -239 -89 -81 -198 -168 -293 -234 -125 -88 -137 -96 -168 -122 -16 -14
-55 -43 -85 -66 -30 -23 -72 -56 -93 -75 -20 -19 -41 -34 -45 -34 -5 0 -31
-19 -59 -42 -28 -24 -70 -59 -94 -78 -24 -19 -80 -70 -126 -112 -45 -43 -86
-78 -90 -78 -4 0 -28 -19 -53 -43 -25 -23 -64 -55 -85 -72 -22 -16 -58 -46
-80 -67 -22 -21 -45 -38 -52 -38 -6 0 -13 -3 -15 -7 -4 -9 -62 -59 -103 -88
-33 -23 -132 -100 -190 -148 -22 -17 -55 -43 -75 -56 -19 -14 -60 -42 -90 -62
-30 -21 -79 -55 -107 -76 -29 -21 -74 -53 -100 -72 -27 -19 -84 -64 -128 -100
-44 -37 -102 -82 -128 -101 -27 -19 -96 -75 -154 -125 -58 -49 -120 -101 -137
-115 -17 -13 -60 -49 -96 -78 -36 -29 -83 -68 -104 -85 -22 -18 -64 -55 -95
-83 -31 -27 -85 -73 -121 -102 -36 -28 -70 -57 -76 -64 -7 -7 -31 -29 -54 -48
-44 -36 -75 -64 -192 -176 -37 -35 -73 -64 -81 -64 -8 0 -52 37 -98 83 -104
103 -247 225 -345 295 -41 28 -76 52 -79 52 -12 0 -201 146 -300 232 -30 26
-67 55 -82 64 -15 10 -50 36 -78 59 -27 23 -70 55 -95 72 -25 17 -72 57 -105
88 -33 31 -89 81 -125 110 -91 75 -130 112 -184 175 -51 60 -51 60 -85 108
-30 43 -44 38 -142 -47 -42 -36 -100 -86 -130 -111 -30 -25 -81 -72 -114 -105
-33 -33 -76 -72 -95 -87 -19 -15 -47 -37 -62 -50 -59 -50 -102 -83 -119 -93
-9 -5 -57 -44 -105 -85 -48 -41 -99 -84 -114 -95 -97 -71 -178 -136 -200 -160
-14 -15 -50 -46 -80 -69 -102 -75 -175 -137 -335 -281 -43 -38 -93 -81 -110
-95 -18 -14 -88 -72 -156 -130 -68 -58 -162 -134 -210 -170 -47 -36 -139 -106
-205 -157 -65 -50 -168 -129 -229 -175 -109 -84 -176 -140 -225 -188 -30 -31
-106 -90 -114 -90 -3 0 -22 -16 -42 -35 -19 -19 -39 -35 -43 -35 -3 0 -33 -25
-66 -55 -33 -30 -63 -54 -67 -55 -3 0 -24 -15 -45 -32 -22 -18 -53 -43 -69
-55 -151 -111 -325 -246 -399 -308 -49 -41 -115 -94 -145 -117 -30 -23 -71
-58 -92 -77 -39 -39 -102 -93 -188 -163 -95 -77 -80 -73 -198 -60 -66 7 -328
12 -687 12 -617 0 -1110 12 -1161 28 -43 14 -227 24 -241 14 -10 -6 0 -24 35
-68 26 -32 64 -83 85 -111 21 -29 45 -56 52 -60 7 -5 41 -42 75 -83 34 -41 80
-97 103 -124 23 -27 64 -78 91 -113 27 -35 66 -83 87 -106 22 -23 39 -45 39
-49 0 -4 17 -27 38 -52 20 -24 68 -83 107 -130 38 -47 135 -147 214 -223 211
-201 389 -381 444 -449 66 -81 152 -208 181 -269 26 -54 66 -179 66 -208 0
-10 9 -50 19 -90 11 -39 29 -119 40 -177 12 -58 27 -130 35 -160 8 -30 19 -95
26 -145 6 -49 20 -118 31 -153 10 -34 19 -75 19 -90 1 -29 20 -111 43 -182 46
-141 77 -273 77 -324 0 -16 9 -59 19 -95 10 -36 24 -104 31 -151 7 -47 20
-110 30 -140 10 -30 24 -86 30 -125 7 -38 23 -106 35 -150 13 -44 37 -134 55
-200 18 -66 41 -147 51 -180 10 -33 24 -85 30 -115 6 -30 17 -73 24 -95 7 -22
21 -83 30 -135 9 -52 25 -117 34 -145 10 -27 24 -79 31 -115 6 -35 18 -76 26
-91 15 -30 47 -157 74 -299 10 -52 23 -113 28 -135 6 -22 18 -69 27 -105 9
-36 26 -101 39 -145 29 -96 72 -266 91 -356 12 -61 25 -110 74 -279 11 -36 24
-96 31 -135 7 -38 20 -99 30 -135 10 -36 24 -99 30 -140 7 -41 20 -97 30 -125
10 -27 23 -77 30 -110 7 -33 20 -82 30 -110 35 -102 118 -448 140 -590 6 -38
19 -99 30 -135 10 -36 24 -92 30 -125 6 -33 20 -82 30 -110 19 -52 41 -133 67
-245 8 -36 23 -92 33 -125 11 -33 26 -100 34 -150 8 -49 20 -103 26 -120 15
-37 40 -169 40 -210 0 -16 9 -59 19 -95 11 -36 27 -109 35 -164 8 -54 17 -101
20 -103 9 -9 64 17 103 48 20 16 41 29 48 29 7 0 18 6 24 14 29 35 212 128
291 148 200 51 972 51 1280 -1 70 -11 218 -69 262 -101 37 -27 66 -26 72 2 2
13 9 77 16 142 6 66 20 153 31 194 10 42 19 100 19 131 1 61 22 202 40 266 6
22 14 54 16 70 18 123 29 177 45 223 11 29 19 63 19 76 0 21 34 148 80 296 11
36 27 108 36 160 8 52 24 109 35 126 10 17 19 40 19 51 0 25 19 43 46 43 37 0
47 -24 64 -155 5 -38 18 -115 30 -170 46 -222 45 -218 124 -515 14 -52 28
-106 31 -120 4 -14 11 -34 16 -45 5 -11 15 -58 23 -105 8 -47 22 -105 30 -129
9 -24 16 -58 16 -75 0 -17 9 -62 20 -101 11 -38 25 -90 31 -115 18 -74 72
-241 79 -245 3 -2 44 9 91 25 46 17 92 30 102 30 10 0 32 7 50 17 25 12 81 19
247 27 294 14 1052 14 1165 0 101 -13 210 -49 284 -95 28 -16 62 -31 77 -32
27 -2 28 0 41 83 7 47 22 112 33 145 19 60 38 126 67 240 9 33 24 80 34 105
10 25 25 77 32 115 8 39 22 87 31 109 9 21 16 51 16 67 0 34 14 100 40 184 10
33 24 85 30 115 7 30 20 84 30 120 57 203 72 260 80 311 4 31 15 72 23 91 8
20 23 84 32 144 9 60 24 125 32 144 8 19 19 62 24 95 5 33 20 96 33 140 22 77
37 145 75 356 16 88 46 161 75 181 24 17 57 6 94 -31 24 -25 52 -42 74 -46 19
-4 47 -16 62 -28 24 -20 29 -34 41 -117 27 -185 37 -400 30 -670 -3 -146 -3
-270 2 -276 4 -7 24 -19 43 -28 67 -31 247 -163 300 -221 14 -15 56 -50 94
-78 39 -29 79 -61 91 -72 12 -11 53 -47 91 -80 84 -73 170 -150 291 -261 50
-47 106 -97 124 -112 173 -147 485 -462 542 -550 27 -40 53 -70 58 -67 80 50
1295 81 2204 57 332 -9 395 -15 471 -47 31 -13 40 -13 53 -2 9 7 43 36 76 64
33 27 86 67 118 88 31 20 65 47 75 59 19 24 142 132 217 191 28 22 109 96 180
165 72 69 191 180 265 247 74 67 162 147 195 179 33 31 79 71 101 88 95 71
261 219 289 257 45 61 72 89 87 89 8 0 32 -23 53 -52 34 -44 82 -93 184 -188
9 -8 66 -58 126 -112 61 -53 126 -113 145 -133 19 -20 67 -61 105 -90 39 -29
95 -77 126 -107 31 -29 123 -116 204 -193 145 -137 262 -249 468 -448 l102
-98 50 5 c155 17 498 29 845 28 1022 -3 1573 -3 1665 0 60 1 122 -3 155 -11
30 -8 64 -14 75 -13 11 0 56 35 100 79 45 43 128 121 185 173 58 52 184 174
280 270 97 96 202 198 235 225 32 28 93 82 134 120 42 39 99 87 126 108 28 21
85 66 129 100 43 34 106 84 140 110 172 135 245 173 431 222 20 5 20 14 21
627 1 343 2 684 3 758 3 346 -19 3977 -24 4146 l-7 192 39 39 c21 22 51 62 68
89 30 49 171 191 299 300 37 33 98 86 135 120 68 63 162 140 252 209 29 22 77
59 106 83 29 23 56 42 59 42 19 0 193 129 261 192 201 190 249 238 299 304 81
108 221 246 339 335 17 13 48 38 70 57 22 19 57 48 77 66 20 17 66 54 102 81
36 28 65 53 66 58 1 19 -258 6 -625 -33 -49 -5 -382 -9 -740 -9 -516 0 -655 3
-680 14 -16 7 -52 34 -80 60 -27 26 -72 63 -100 83 -27 20 -73 56 -101 81 -28
25 -77 67 -110 92 -32 26 -93 80 -135 120 -151 148 -246 235 -317 294 -123
101 -215 179 -252 214 -19 18 -51 45 -70 59 -19 15 -39 32 -45 38 -23 26 -187
165 -270 229 -49 39 -114 93 -145 121 -30 28 -93 83 -140 122 -47 40 -99 85
-116 100 -120 106 -220 198 -289 267 -125 124 -394 379 -413 390 -31 18 -122
99 -282 251 -47 45 -101 95 -120 110 -19 15 -53 44 -76 64 -22 19 -53 44 -69
55 -16 11 -46 35 -68 53 -21 17 -42 32 -46 32 -4 0 -16 8 -27 18 -10 10 -48
37 -84 62 -36 24 -113 91 -172 148 -121 119 -125 120 -193 52 -22 -22 -53 -49
-69 -59 -15 -11 -47 -37 -70 -59 -23 -22 -71 -58 -106 -80 -36 -23 -81 -53
-100 -67 -19 -15 -72 -53 -118 -85 -45 -32 -106 -78 -135 -103 -29 -24 -66
-53 -83 -63 -17 -11 -53 -38 -80 -61 -48 -42 -168 -139 -221 -179 -16 -11
-104 -78 -198 -149 -93 -71 -182 -140 -196 -154 -14 -14 -54 -48 -89 -76 -34
-27 -79 -64 -99 -80 -20 -17 -72 -55 -116 -85 -44 -29 -97 -68 -118 -87 -45
-40 -90 -45 -108 -10 -21 40 -248 256 -359 342 -68 52 -192 155 -205 169 -5 6
-48 45 -95 86 -47 41 -99 88 -115 105 -70 70 -162 153 -195 175 -19 13 -57 47
-85 75 -75 76 -293 278 -355 329 -19 15 -121 112 -226 215 -207 202 -223 217
-334 311 -41 34 -82 70 -91 79 -9 9 -34 30 -55 46 -45 36 -147 126 -190 169
-17 17 -68 65 -113 106 -46 41 -151 143 -234 225 -157 155 -190 185 -227 205
-12 6 -45 32 -74 58 -29 26 -88 76 -132 111 -106 86 -104 85 -379 358 -246
244 -295 296 -295 317 0 6 -14 28 -31 49 -39 47 -69 48 -129 1z m-16 -1148
c-10 -117 -10 -308 1 -665 l8 -253 -37 -34 c-20 -19 -41 -34 -46 -34 -5 0 -13
-6 -17 -12 -11 -17 -69 -58 -83 -58 -5 0 -10 -4 -10 -9 0 -4 -29 -27 -65 -50
-36 -23 -65 -46 -65 -52 0 -5 -7 -9 -15 -9 -8 0 -24 -9 -35 -20 -11 -11 -22
-20 -25 -20 -3 0 -58 -54 -123 -119 -109 -112 -204 -227 -219 -268 -4 -10 -9
-20 -12 -23 -9 -7 -77 -150 -91 -190 -21 -61 -23 -88 -6 -112 9 -12 16 -36 17
-53 0 -16 13 -52 29 -80 16 -27 34 -62 41 -77 13 -32 25 -34 65 -13 16 8 39
15 51 15 12 0 34 6 50 14 15 8 60 30 98 49 87 42 138 70 145 78 3 3 25 16 50
30 25 13 51 30 58 37 7 6 20 12 28 12 8 0 17 7 20 15 4 8 10 15 15 15 4 0 28
13 52 30 24 16 56 34 70 39 15 6 27 15 27 21 0 5 7 10 15 10 8 0 15 4 15 9 0
5 12 14 28 20 15 7 36 17 47 24 38 23 80 52 85 57 3 3 16 11 30 18 38 18 64
36 72 48 4 7 19 15 33 18 14 4 25 11 25 16 0 6 7 10 14 10 22 0 166 76 200
105 15 14 30 25 32 25 7 0 65 42 94 68 13 12 30 22 37 22 7 0 13 7 13 15 0 8
5 15 10 15 6 0 10 -2 10 -3 0 -13 -36 -73 -47 -80 -7 -4 -13 -14 -13 -21 0 -8
-7 -16 -15 -20 -8 -3 -15 -12 -15 -21 0 -8 -4 -15 -8 -15 -5 0 -14 -10 -21
-22 -14 -27 -27 -48 -62 -103 -14 -22 -38 -66 -53 -97 -15 -32 -32 -58 -37
-58 -5 0 -9 -8 -9 -19 0 -10 -7 -24 -15 -31 -8 -7 -15 -18 -15 -25 0 -7 -7
-18 -15 -25 -8 -7 -15 -21 -15 -31 0 -9 -7 -24 -15 -32 -7 -8 -17 -26 -21 -41
-3 -14 -10 -26 -14 -26 -4 0 -13 -12 -19 -27 -6 -16 -20 -41 -31 -58 -11 -16
-24 -40 -30 -52 -5 -13 -14 -23 -20 -23 -5 0 -10 -6 -10 -13 0 -7 -16 -36 -35
-66 -19 -29 -35 -57 -35 -62 0 -5 -5 -9 -10 -9 -6 0 -15 -10 -21 -22 -22 -49
-41 -78 -50 -78 -5 0 -9 -4 -9 -9 0 -14 -52 -91 -62 -91 -4 0 -8 -7 -8 -15 0
-8 -4 -15 -9 -15 -5 0 -14 -13 -21 -30 -7 -16 -16 -30 -20 -30 -4 0 -10 -8
-14 -17 -3 -10 -24 -45 -46 -78 -22 -33 -44 -70 -50 -82 -5 -13 -14 -23 -19
-23 -5 0 -12 -8 -15 -17 -10 -29 -91 -153 -123 -188 -10 -12 -29 -36 -42 -55
-25 -36 -28 -39 -86 -104 -19 -21 -35 -42 -35 -45 0 -3 -29 -37 -65 -75 -36
-38 -65 -70 -65 -72 0 -1 -13 -18 -30 -36 -16 -18 -30 -38 -30 -44 0 -6 -6
-17 -14 -23 -8 -7 -18 -26 -21 -42 -4 -16 -11 -29 -16 -29 -16 0 -10 -82 9
-120 20 -45 65 -69 93 -51 10 6 29 11 43 11 13 0 29 7 36 15 7 8 23 15 35 15
12 0 28 7 35 15 7 8 17 15 22 15 15 0 117 50 123 61 4 5 15 9 26 9 10 0 19 4
19 9 0 5 12 14 28 20 15 6 35 15 45 21 21 12 30 17 130 69 43 23 84 41 92 41
7 0 15 7 19 15 3 8 14 15 24 15 11 0 25 6 31 14 7 8 24 17 39 21 15 4 29 10
32 13 10 13 109 66 160 86 8 3 22 10 30 15 8 5 22 12 30 15 8 3 23 10 33 16
22 13 33 19 142 74 87 45 104 54 142 76 10 6 30 15 46 21 15 6 27 15 27 20 0
5 7 9 15 9 8 0 32 9 52 20 21 11 43 20 50 20 7 0 13 5 13 10 0 6 6 10 13 10 6
0 37 14 67 30 30 16 67 35 83 41 15 6 27 15 27 19 0 4 16 11 35 14 19 4 35 11
35 16 0 5 20 12 45 16 25 3 45 10 45 15 0 5 14 9 30 9 25 0 30 -4 30 -22 0
-13 -7 -32 -15 -42 -8 -11 -15 -28 -15 -38 0 -10 -5 -18 -11 -18 -5 0 -15 -13
-20 -30 -6 -16 -15 -30 -20 -30 -5 0 -9 -7 -9 -16 0 -9 -8 -26 -17 -39 -10
-12 -25 -33 -33 -45 -8 -12 -19 -28 -25 -34 -30 -35 -55 -78 -55 -94 0 -11 -7
-25 -15 -32 -8 -7 -15 -21 -15 -31 0 -10 -5 -30 -12 -46 -6 -15 -17 -53 -24
-83 -7 -30 -17 -75 -23 -100 -19 -84 -10 -483 14 -617 2 -12 -2 -29 -8 -37
-11 -15 -54 -15 -445 -6 -238 5 -437 12 -441 15 -5 2 -701 5 -1547 5 -907 0
-1545 4 -1554 10 -12 7 -9 13 15 35 17 14 45 39 63 55 18 17 35 30 37 30 3 0
20 15 39 33 18 17 44 39 56 47 13 8 32 23 42 33 10 9 20 17 23 17 3 0 26 20
51 45 24 25 48 45 53 45 4 0 16 9 26 20 10 11 22 20 27 20 5 0 21 12 36 28 15
15 59 52 97 82 38 30 82 67 97 83 15 15 32 27 38 27 5 0 10 7 10 15 0 8 5 15
12 15 11 0 29 14 66 53 9 9 20 17 25 17 4 0 21 14 37 30 16 17 34 30 40 30 5
0 10 7 10 15 0 8 5 15 10 15 6 0 23 12 38 28 15 15 45 41 67 57 47 35 63 49
170 149 135 127 170 156 183 156 6 0 12 7 12 15 0 8 5 15 10 15 6 0 24 14 40
30 16 17 33 30 38 30 8 0 27 13 83 58 l29 24 -41 39 c-22 21 -43 39 -45 39 -3
0 -24 20 -49 44 -24 25 -51 48 -59 53 -28 16 -151 139 -180 181 -16 23 -33 42
-37 42 -5 0 -9 7 -9 15 0 9 -7 18 -15 21 -8 4 -15 11 -15 18 0 18 -14 33 -37
40 -18 6 -24 2 -29 -20 -7 -27 -37 -64 -52 -64 -4 0 -15 -8 -23 -17 -24 -27
-58 -53 -69 -53 -5 0 -13 -6 -17 -12 -10 -15 -99 -88 -107 -88 -4 0 -27 -20
-52 -45 -24 -25 -48 -45 -52 -45 -4 0 -18 -12 -31 -26 -13 -13 -44 -39 -67
-56 -24 -17 -44 -35 -44 -40 0 -4 -7 -8 -15 -8 -8 0 -15 -7 -15 -15 0 -8 -4
-15 -10 -15 -5 0 -32 -21 -59 -47 -27 -27 -62 -58 -78 -70 -15 -12 -41 -35
-58 -52 -16 -17 -33 -31 -37 -31 -4 0 -21 -12 -37 -27 -16 -16 -54 -46 -85
-67 -31 -22 -56 -43 -56 -48 0 -4 -5 -8 -11 -8 -12 0 -88 -60 -131 -102 -15
-16 -30 -28 -33 -28 -10 0 -67 -43 -97 -72 -15 -16 -32 -28 -38 -28 -5 0 -10
-4 -10 -9 0 -4 -19 -21 -42 -37 -23 -16 -54 -40 -69 -54 -14 -14 -36 -32 -49
-40 -12 -8 -33 -23 -45 -32 -13 -10 -26 -18 -29 -18 -4 0 -19 -13 -35 -29 -16
-16 -50 -45 -77 -63 -27 -19 -65 -49 -84 -66 -19 -18 -37 -32 -41 -32 -3 0
-15 -8 -27 -17 -11 -10 -30 -25 -42 -33 -12 -8 -28 -19 -34 -25 -6 -5 -30 -23
-53 -39 -24 -16 -43 -33 -43 -37 0 -5 -5 -9 -10 -9 -14 0 -72 -41 -83 -57 -4
-7 -15 -13 -22 -13 -8 0 -15 -7 -15 -15 0 -8 -4 -15 -10 -15 -5 0 -26 -16 -47
-36 -20 -20 -55 -48 -78 -63 l-40 -26 -584 -3 c-349 -2 -587 0 -592 5 -10 10
81 99 296 288 38 33 84 75 102 93 19 17 36 32 39 32 2 0 18 14 34 30 16 17 32
30 35 30 3 0 14 8 25 18 11 9 29 25 40 35 11 9 22 17 25 17 3 0 26 20 51 45
24 25 49 45 54 45 6 0 10 4 10 8 0 5 22 23 50 41 28 18 50 37 50 42 0 5 7 9
15 9 8 0 15 7 15 15 0 8 5 15 10 15 14 0 72 41 83 58 4 6 15 12 22 12 8 0 15
4 15 9 0 4 19 21 43 37 23 16 44 32 45 37 2 4 10 7 17 7 8 0 18 6 22 13 11 16
69 57 83 57 5 0 10 5 10 10 0 6 8 14 17 17 9 4 24 14 34 22 31 28 44 37 62 44
9 3 17 11 17 17 0 5 6 10 13 10 7 0 20 9 30 20 9 11 23 20 31 20 8 0 16 7 20
15 3 8 12 15 21 15 8 0 15 4 15 9 0 5 20 21 45 35 25 15 45 31 45 36 0 6 7 10
15 10 7 0 18 6 22 13 11 16 69 57 83 57 5 0 10 7 10 15 0 8 5 15 10 15 6 0 24
14 40 30 16 17 33 30 38 30 5 0 17 9 27 20 10 11 22 20 27 20 5 0 22 14 38 30
16 17 34 30 40 30 5 0 10 3 10 8 0 4 26 27 58 52 31 24 61 50 65 57 4 7 12 13
17 13 6 0 18 8 28 18 10 9 29 24 42 32 12 8 28 21 36 28 7 6 16 12 21 12 5 0
16 9 26 20 9 11 23 20 31 20 8 0 16 7 20 15 3 8 12 15 21 15 8 0 15 4 15 9 0
4 19 21 43 37 23 16 44 32 45 37 2 4 10 7 17 7 8 0 18 6 22 13 10 15 69 57 82
57 5 0 11 7 15 15 3 8 12 15 21 15 8 0 15 4 15 10 0 5 12 16 28 24 15 8 41 26
57 40 17 14 35 30 41 34 5 5 29 22 52 37 23 15 42 32 42 36 0 5 7 9 15 9 8 0
15 4 15 9 0 4 19 21 43 37 23 16 46 35 50 41 4 7 12 13 17 13 5 0 26 16 47 36
20 20 48 43 62 52 14 9 30 22 34 29 4 7 13 13 20 13 7 1 23 14 37 30 13 17 30
30 37 30 7 0 13 4 13 10 0 5 13 16 29 24 15 8 39 24 52 36 58 49 73 60 81 60
5 0 22 14 38 30 16 17 34 30 39 30 6 0 14 6 18 13 4 7 20 20 34 29 14 9 42 32
62 52 21 20 42 36 47 36 6 0 10 4 10 9 0 4 19 21 43 37 23 16 46 35 50 41 4 7
15 13 22 13 8 0 15 4 15 9 0 4 19 21 42 37 46 31 81 59 110 87 10 9 22 17 26
17 5 0 17 9 27 20 10 11 22 20 27 20 5 0 22 14 38 30 16 17 33 30 38 30 5 0
17 9 27 20 10 11 24 20 32 20 7 0 13 4 13 8 0 5 25 26 55 48 61 43 107 79 141
109 12 11 32 27 45 35 12 8 31 23 41 33 10 9 23 17 28 17 6 0 10 4 10 9 0 4
19 21 43 37 23 16 46 35 50 41 4 7 15 13 22 13 8 0 15 4 15 8 0 5 25 26 56 48
31 21 69 51 85 67 16 15 33 27 36 27 3 0 13 7 22 15 51 46 62 55 66 55 3 0 19
14 35 30 16 17 34 30 40 30 5 0 10 4 10 9 0 4 19 21 43 37 23 16 46 35 50 41
4 7 15 13 22 13 8 0 15 4 15 10 0 5 13 16 28 24 16 8 40 26 53 40 13 14 27 26
31 26 4 0 27 19 51 43 23 23 60 51 81 62 21 11 41 26 44 33 6 16 43 32 56 24
5 -3 5 -47 0 -106z m5896 -1924 c0 -42 -5 -95 -12 -117 -6 -22 -14 -183 -18
-360 -5 -230 -11 -327 -20 -345 -13 -25 -93 -70 -127 -70 -10 0 -27 -7 -37
-15 -11 -8 -31 -15 -44 -15 -27 0 -92 -36 -92 -51 0 -5 -4 -9 -9 -9 -5 0 -27
-19 -50 -41 -22 -23 -41 -45 -41 -50 0 -5 -7 -9 -15 -9 -8 0 -15 -5 -15 -10 0
-6 -12 -23 -28 -38 -15 -15 -45 -49 -67 -77 -21 -27 -52 -62 -67 -77 -15 -15
-28 -31 -28 -37 0 -5 -6 -14 -12 -18 -19 -12 -88 -100 -88 -111 0 -5 -7 -12
-15 -16 -8 -3 -15 -14 -15 -24 0 -10 -7 -27 -15 -38 -8 -10 -15 -40 -15 -66 0
-43 4 -51 52 -100 74 -77 94 -88 160 -88 50 0 78 8 138 42 8 4 22 11 30 14 8
3 22 10 30 15 8 5 27 15 43 22 15 6 27 14 27 18 0 4 12 10 26 13 15 4 33 14
41 21 8 8 23 15 34 15 10 0 19 4 19 9 0 5 24 21 53 36 94 47 112 58 115 67 2
4 9 8 15 8 7 0 29 9 50 20 20 11 42 20 48 20 6 0 17 7 25 15 9 8 24 15 33 15
10 0 24 7 31 15 7 8 21 15 31 15 10 0 21 5 24 11 8 13 108 59 128 59 8 0 20 7
27 15 7 8 23 15 35 15 13 0 25 7 29 15 3 8 14 15 24 15 10 0 23 5 29 11 14 14
50 35 86 50 15 6 27 15 27 19 0 5 14 11 30 15 17 4 30 10 30 15 0 4 12 13 28
19 15 6 41 20 57 31 17 11 37 22 45 25 8 3 28 13 43 21 91 46 112 -17 46 -141
-16 -30 -29 -63 -29 -74 0 -10 -7 -21 -15 -25 -8 -3 -15 -16 -15 -29 0 -14 -7
-30 -15 -37 -8 -7 -15 -21 -15 -32 0 -10 -6 -21 -14 -24 -8 -3 -17 -17 -21
-32 -4 -15 -10 -29 -13 -32 -11 -8 -48 -64 -55 -82 -3 -10 -11 -18 -17 -18 -5
0 -10 -4 -10 -10 0 -5 -15 -25 -33 -44 -18 -18 -51 -57 -72 -85 -22 -28 -43
-51 -47 -51 -4 0 -8 -7 -8 -15 0 -8 -7 -15 -15 -15 -8 0 -15 -6 -15 -13 0 -7
-13 -24 -30 -37 -16 -14 -29 -30 -30 -35 0 -6 -8 -18 -17 -26 -42 -37 -153
-160 -153 -169 0 -5 -7 -10 -15 -10 -8 0 -15 -6 -15 -14 0 -8 -12 -17 -27 -21
-15 -3 -31 -12 -35 -18 -5 -9 -103 -14 -340 -18 -183 -4 -389 -12 -458 -19
-151 -14 -531 -10 -551 6 -8 6 -41 14 -73 18 -33 4 -64 10 -70 15 -6 4 -24 11
-40 15 -30 7 -125 92 -126 111 0 6 -9 18 -20 28 -11 9 -20 23 -20 30 0 7 -29
44 -65 82 -36 38 -65 72 -65 75 0 15 -190 190 -207 190 -6 0 -13 4 -15 8 -3 9
-20 18 -115 66 -60 30 -71 54 -49 100 15 33 75 86 95 86 6 0 11 4 11 9 0 5 14
12 30 16 17 4 30 10 30 15 0 5 13 11 29 15 16 3 35 13 42 21 6 8 20 14 31 14
10 0 21 7 24 15 4 8 14 15 24 15 10 0 25 6 32 13 7 7 24 18 38 25 31 15 60 33
77 49 7 6 22 15 33 18 11 3 20 11 20 16 0 5 4 9 9 9 6 0 25 14 43 30 18 17 43
33 56 36 12 4 22 9 22 13 0 4 36 34 80 66 44 32 80 62 80 67 0 4 5 8 12 8 6 0
18 7 27 15 51 46 62 55 66 55 3 0 19 14 35 30 16 17 34 30 40 30 5 0 10 7 10
15 0 8 7 15 15 15 7 0 18 6 22 13 4 7 24 24 43 37 19 13 39 30 43 37 4 7 15
13 22 13 8 0 15 7 15 15 0 8 6 15 13 15 6 0 23 12 36 26 13 14 37 32 53 40 15
8 28 19 28 24 0 6 7 10 15 10 8 0 15 5 15 11 0 5 14 15 30 20 17 6 30 15 30
20 0 5 6 9 13 9 6 0 23 12 36 26 13 14 37 32 53 40 15 8 28 19 28 24 0 6 5 10
10 10 6 0 24 14 40 30 16 17 33 30 37 30 5 0 16 9 26 20 9 11 24 20 32 20 8 0
15 5 15 10 0 6 8 14 17 17 10 4 27 17 38 28 11 12 27 26 36 31 15 8 57 43 138
113 13 12 30 21 38 21 7 0 16 7 19 15 4 8 12 15 20 15 7 0 17 6 21 13 13 21
76 66 85 61 4 -3 8 -40 8 -82z m-11774 -71 c-3 -44 -13 -95 -21 -115 -8 -19
-15 -49 -15 -66 0 -17 -5 -41 -12 -53 -6 -12 -15 -47 -19 -77 -4 -30 -13 -56
-18 -58 -6 -2 -11 -15 -11 -29 0 -14 -6 -39 -14 -56 -8 -18 -17 -49 -21 -69
-3 -21 -10 -38 -15 -38 -6 0 -10 -5 -10 -11 0 -15 -63 -155 -93 -204 -7 -11
-24 -36 -39 -56 -16 -20 -28 -41 -28 -46 0 -6 -8 -19 -17 -31 -10 -11 -25 -30
-33 -42 -8 -12 -23 -33 -32 -45 -10 -13 -18 -28 -18 -34 0 -6 -4 -11 -8 -11
-9 0 -62 -77 -62 -90 0 -5 -3 -10 -7 -12 -5 -1 -21 -22 -37 -45 -16 -24 -33
-43 -37 -43 -5 0 -9 -4 -9 -9 0 -9 -56 -99 -85 -136 -8 -10 -15 -25 -15 -33 0
-7 -7 -20 -15 -28 -21 -21 -21 -144 0 -144 7 0 18 -8 24 -17 13 -24 152 -24
196 0 17 9 37 17 46 17 9 0 22 7 29 15 7 8 20 15 30 15 10 0 23 7 30 15 7 8
20 15 30 15 10 0 23 7 30 15 7 8 19 15 26 15 8 0 31 9 51 20 21 11 43 20 50
20 7 0 13 5 13 10 0 6 5 10 11 10 5 0 31 9 57 21 26 11 61 26 77 33 17 7 46
20 65 29 19 8 47 18 63 21 15 4 27 11 27 16 0 6 7 10 15 10 14 0 138 63 164
83 17 14 50 33 79 46 12 6 22 15 22 20 0 5 14 12 30 16 17 4 30 11 30 16 0 5
11 11 25 15 13 3 29 12 36 20 13 16 69 19 69 4 0 -34 -159 -214 -230 -260 -13
-8 -32 -23 -42 -32 -10 -10 -23 -18 -28 -18 -6 0 -13 -7 -16 -15 -4 -8 -12
-15 -20 -15 -8 0 -22 -9 -31 -20 -10 -11 -23 -20 -30 -20 -7 0 -13 -4 -13 -9
0 -5 -12 -13 -27 -19 -16 -5 -41 -21 -56 -36 -15 -14 -30 -26 -33 -26 -3 0
-16 -8 -29 -17 -12 -10 -33 -25 -45 -33 -12 -8 -28 -19 -34 -25 -6 -5 -30 -23
-53 -39 -24 -16 -43 -33 -43 -37 0 -5 -7 -9 -15 -9 -7 0 -18 -6 -22 -13 -4 -6
-27 -25 -50 -41 -24 -16 -43 -33 -43 -37 0 -5 -6 -9 -14 -9 -8 0 -16 -7 -20
-15 -3 -8 -12 -15 -21 -15 -8 0 -15 -4 -15 -8 0 -4 -14 -16 -30 -26 -17 -9
-41 -27 -54 -39 -14 -12 -37 -31 -52 -42 -15 -11 -33 -26 -40 -32 -7 -7 -15
-13 -19 -13 -3 0 -19 -13 -35 -30 -16 -16 -34 -30 -39 -30 -5 0 -27 -16 -48
-36 l-38 -36 -115 6 c-63 4 -133 11 -155 16 -25 6 -325 6 -825 -1 -645 -8
-796 -8 -849 3 -65 14 -88 32 -54 45 10 3 22 12 26 20 4 7 15 13 24 13 9 0 30
15 48 33 59 60 146 127 164 127 5 0 11 7 15 15 3 8 12 15 21 15 8 0 15 7 15
15 0 8 4 15 9 15 6 0 27 16 48 35 21 19 42 35 46 35 4 0 21 14 37 30 16 17 34
30 40 30 5 0 10 7 10 15 0 8 7 15 15 15 7 0 18 6 22 13 4 7 30 31 58 52 27 22
62 52 77 68 15 15 30 27 32 27 3 0 21 15 40 33 18 17 44 39 56 47 13 8 32 23
42 33 10 9 20 17 23 17 3 0 18 13 34 29 15 16 37 32 49 35 11 4 23 13 26 21 3
8 12 15 21 15 8 0 15 4 15 8 0 10 96 82 110 82 6 0 13 7 16 15 4 8 10 15 15
15 5 0 17 8 27 18 10 9 29 24 42 32 13 8 32 23 42 33 10 9 23 17 28 17 6 0 10
7 10 15 0 8 7 15 15 15 8 0 15 4 15 8 0 5 23 23 50 41 28 18 50 37 50 42 0 5
7 9 15 9 8 0 15 4 15 9 0 4 19 21 43 37 48 33 54 38 102 79 45 39 54 47 88 68
16 10 45 35 66 55 43 41 137 124 179 156 15 11 29 24 30 28 2 5 10 8 17 8 8 0
18 6 22 13 4 6 24 24 43 39 30 22 74 61 150 131 8 8 31 25 50 38 19 13 45 34
57 47 12 12 27 22 32 22 6 0 14 6 18 13 4 7 34 33 66 57 31 25 57 48 57 52 0
5 6 8 13 8 6 0 39 29 72 65 81 87 90 86 81 -14z m-226 -2671 c0 -16 6 -47 14
-67 8 -21 17 -62 20 -92 3 -29 9 -58 15 -65 5 -6 12 -35 16 -63 4 -29 11 -55
15 -58 5 -3 12 -26 16 -52 4 -25 13 -58 20 -72 8 -14 14 -39 14 -56 1 -16 7
-41 15 -55 8 -14 14 -41 15 -61 0 -19 7 -44 15 -55 8 -10 15 -33 15 -51 0 -17
5 -44 12 -60 6 -15 17 -53 24 -83 29 -126 42 -177 53 -203 6 -16 11 -40 11
-55 0 -15 7 -36 15 -46 8 -11 15 -31 15 -45 1 -14 7 -37 15 -51 8 -14 14 -36
15 -48 0 -13 6 -38 14 -55 17 -40 56 -206 56 -239 0 -13 4 -28 10 -34 5 -5 14
-39 19 -76 5 -36 14 -75 20 -86 6 -12 11 -36 11 -54 0 -18 6 -45 14 -59 7 -14
17 -52 20 -83 4 -31 12 -56 17 -56 5 0 9 -13 9 -29 0 -15 9 -57 20 -91 11 -34
20 -68 20 -75 0 -7 7 -26 15 -41 8 -16 15 -40 15 -54 0 -14 7 -34 15 -44 8
-11 15 -31 15 -45 1 -14 7 -37 15 -51 8 -14 14 -36 15 -50 0 -14 7 -38 15 -54
8 -15 15 -37 15 -49 0 -23 36 -187 52 -232 5 -16 14 -43 18 -60 11 -36 45
-151 66 -220 8 -27 20 -68 25 -90 6 -22 15 -49 19 -60 9 -20 21 -71 42 -170 6
-27 17 -67 24 -88 8 -20 14 -50 14 -65 0 -15 7 -40 15 -56 8 -15 15 -41 15
-57 0 -15 6 -48 14 -71 8 -24 18 -61 22 -83 3 -22 10 -44 14 -50 5 -5 11 -32
16 -60 4 -27 13 -64 20 -82 8 -18 14 -45 14 -60 0 -15 7 -37 15 -47 8 -11 15
-33 15 -48 0 -16 7 -45 15 -65 8 -19 15 -44 15 -54 0 -10 5 -30 12 -46 13 -31
31 -98 48 -183 7 -30 18 -70 26 -88 8 -18 14 -47 14 -65 0 -18 7 -45 15 -61 8
-15 15 -42 15 -60 0 -17 7 -44 15 -60 8 -15 15 -38 15 -50 0 -11 6 -33 14 -48
8 -15 17 -41 21 -58 4 -17 13 -43 21 -58 8 -15 14 -33 14 -39 0 -27 16 -11 38
40 13 28 30 65 38 80 8 16 14 37 14 47 0 10 6 31 14 47 19 39 56 154 56 174 0
9 7 30 15 45 8 16 15 43 15 60 0 16 7 39 15 50 8 10 15 37 15 59 0 22 7 53 15
69 8 15 15 44 15 63 0 19 6 49 14 66 8 18 17 62 21 99 4 37 10 70 15 73 5 3
11 40 15 83 4 42 11 82 16 88 5 7 12 43 15 80 3 38 12 86 20 107 8 20 14 58
14 83 0 25 5 55 12 67 6 12 15 59 19 105 4 46 12 88 17 95 5 7 12 44 16 84 3
40 11 83 16 95 6 13 14 57 19 98 5 41 14 93 20 115 6 22 11 63 11 91 0 27 5
55 10 60 6 6 14 45 19 87 5 43 13 83 19 90 5 6 12 39 15 71 3 33 10 62 15 65
5 3 12 32 16 63 4 32 11 60 16 63 5 3 12 34 15 70 4 36 11 68 16 70 4 3 11 27
14 53 4 26 13 61 21 79 8 17 14 48 14 70 0 21 6 49 13 63 8 15 17 57 20 95 4
38 11 73 17 79 5 5 10 28 10 51 1 22 6 60 11 85 6 25 16 72 22 105 7 33 16 66
20 72 4 7 10 36 13 65 3 29 12 67 20 85 8 17 14 44 14 60 1 15 7 39 15 53 8
14 14 40 15 57 0 18 6 50 14 70 14 40 30 110 48 208 6 33 17 74 24 92 8 17 14
50 14 73 0 23 5 51 12 63 6 12 14 48 18 82 4 33 12 74 18 90 15 44 31 111 47
195 32 172 41 206 58 230 15 22 19 23 38 11 27 -16 1013 -31 1304 -20 201 8
385 2 385 -13 0 -21 -44 -72 -177 -205 -79 -78 -143 -144 -143 -147 0 -3 -20
-26 -45 -50 -25 -25 -45 -50 -45 -56 0 -5 -4 -10 -9 -10 -5 0 -13 -9 -16 -20
-3 -11 -63 -78 -133 -148 -70 -70 -134 -143 -144 -162 -18 -39 -35 -112 -48
-213 -5 -38 -13 -74 -18 -80 -5 -7 -13 -39 -17 -71 -4 -33 -11 -66 -15 -75 -5
-9 -14 -41 -19 -71 -15 -79 -37 -170 -50 -203 -6 -16 -11 -44 -11 -63 0 -19
-7 -51 -15 -71 -8 -19 -15 -48 -15 -64 0 -16 -6 -46 -14 -66 -8 -21 -17 -63
-21 -93 -3 -30 -10 -59 -14 -65 -5 -5 -13 -35 -19 -65 -27 -136 -34 -167 -44
-195 -12 -37 -36 -134 -48 -197 -5 -26 -13 -55 -18 -65 -5 -10 -13 -39 -16
-65 -4 -26 -11 -50 -15 -53 -5 -2 -12 -31 -16 -62 -3 -32 -13 -77 -21 -101 -8
-23 -14 -58 -14 -76 0 -19 -7 -47 -15 -62 -8 -16 -15 -45 -15 -65 0 -20 -6
-59 -14 -85 -20 -67 -35 -137 -47 -209 -5 -33 -13 -67 -18 -75 -5 -9 -12 -36
-16 -60 -4 -25 -13 -64 -21 -88 -8 -23 -14 -56 -14 -71 0 -16 -7 -42 -15 -57
-8 -16 -15 -40 -15 -54 0 -13 -6 -42 -14 -65 -14 -40 -27 -98 -47 -205 -6 -30
-14 -64 -19 -75 -5 -11 -14 -47 -19 -80 -11 -66 -25 -126 -47 -196 -8 -26 -14
-58 -14 -72 0 -14 -5 -38 -12 -54 -6 -15 -17 -50 -24 -78 -7 -27 -19 -79 -28
-115 -9 -36 -23 -92 -31 -125 -7 -33 -18 -76 -24 -95 -6 -19 -11 -49 -11 -66
0 -18 -7 -45 -15 -60 -8 -16 -15 -46 -15 -67 0 -22 -6 -53 -14 -70 -8 -18 -16
-57 -19 -88 -3 -31 -10 -65 -15 -75 -10 -19 -21 -67 -46 -194 -7 -36 -18 -78
-24 -93 -7 -16 -12 -41 -12 -57 0 -15 -7 -41 -15 -56 -8 -16 -15 -42 -15 -57
0 -15 -7 -44 -15 -64 -8 -19 -15 -47 -15 -60 0 -14 -6 -39 -14 -56 -8 -18 -17
-58 -21 -89 -3 -32 -10 -60 -15 -63 -5 -3 -12 -31 -16 -63 -3 -31 -10 -62 -15
-68 -5 -6 -12 -37 -15 -69 -4 -32 -13 -70 -21 -84 -7 -15 -13 -39 -13 -54 0
-15 -6 -40 -14 -55 -7 -15 -16 -51 -19 -81 -4 -29 -11 -58 -16 -65 -5 -6 -13
-35 -17 -64 -4 -29 -10 -55 -15 -57 -4 -3 -11 -31 -15 -62 -3 -31 -13 -68 -20
-82 -8 -14 -14 -36 -14 -47 0 -12 -7 -41 -15 -64 -8 -23 -15 -59 -15 -79 0
-20 -7 -49 -15 -65 -8 -15 -15 -43 -15 -60 0 -18 -6 -55 -14 -82 -8 -27 -17
-82 -21 -122 -4 -39 -11 -75 -16 -78 -5 -3 -9 -16 -9 -29 0 -13 -8 -28 -17
-33 -10 -4 -173 -2 -363 6 -190 7 -394 15 -454 17 -147 5 -154 7 -161 53 -3
20 -13 49 -21 64 -8 14 -14 40 -14 57 0 17 -7 45 -14 63 -8 18 -18 54 -21 81
-3 26 -10 47 -14 47 -5 0 -11 27 -15 60 -4 33 -11 62 -16 65 -5 3 -12 27 -16
53 -4 25 -13 61 -20 79 -8 18 -14 45 -14 60 0 15 -7 41 -15 57 -8 15 -15 42
-15 60 -1 17 -7 42 -15 56 -8 14 -14 36 -15 50 0 14 -7 37 -14 52 -8 16 -18
48 -22 73 -3 25 -10 48 -15 50 -4 3 -11 26 -15 52 -4 25 -13 58 -20 72 -8 14
-14 40 -14 56 0 17 -7 39 -15 49 -8 11 -15 36 -15 55 -1 20 -7 47 -15 61 -8
14 -14 41 -15 60 0 19 -7 47 -14 62 -8 16 -18 49 -22 75 -3 27 -10 53 -14 58
-5 6 -11 32 -15 59 -4 27 -14 61 -21 75 -8 14 -14 39 -14 54 0 16 -5 38 -12
50 -6 12 -15 42 -19 67 -4 25 -11 59 -17 75 -6 17 -15 50 -22 75 -6 25 -18 72
-26 105 -8 33 -20 83 -26 110 -5 28 -14 58 -20 68 -5 10 -12 42 -15 70 -3 29
-12 64 -19 79 -8 15 -14 42 -14 60 0 18 -6 44 -13 58 -8 15 -17 54 -20 89 -4
34 -10 68 -14 74 -5 7 -13 37 -20 67 -23 104 -41 175 -52 203 -6 16 -11 44
-11 63 0 19 -4 34 -10 34 -5 0 -12 17 -15 38 -3 20 -12 51 -20 67 -7 17 -16
48 -19 69 -3 22 -9 42 -14 45 -5 3 -12 27 -16 54 -4 26 -11 47 -16 47 -5 0
-12 21 -16 48 -4 26 -13 56 -20 67 -8 11 -14 28 -14 39 0 11 -10 40 -22 64
l-21 45 -19 -24 c-10 -13 -21 -35 -25 -49 -3 -14 -14 -41 -25 -60 -10 -19 -18
-43 -18 -52 0 -10 -4 -18 -10 -18 -5 0 -12 -16 -16 -37 -4 -20 -13 -48 -20
-62 -8 -14 -14 -37 -14 -51 -1 -14 -7 -36 -15 -50 -8 -14 -14 -36 -15 -50 0
-14 -7 -38 -15 -54 -8 -15 -15 -42 -15 -60 0 -17 -5 -49 -11 -71 -6 -22 -15
-65 -20 -95 -6 -30 -14 -63 -19 -72 -6 -10 -13 -50 -16 -90 -4 -40 -13 -85
-20 -100 -8 -15 -14 -41 -14 -58 0 -17 -7 -47 -15 -67 -8 -19 -15 -55 -15 -79
0 -24 -6 -63 -14 -86 -8 -24 -17 -68 -21 -98 -4 -30 -11 -59 -15 -65 -4 -5
-11 -35 -15 -65 -4 -30 -11 -59 -15 -65 -4 -5 -12 -35 -18 -65 -6 -30 -16 -74
-21 -97 -24 -94 -33 -131 -47 -193 -17 -74 -38 -170 -54 -250 -7 -30 -18 -70
-26 -88 -8 -18 -14 -46 -14 -62 0 -16 -6 -44 -14 -62 -18 -42 -35 -109 -46
-175 -4 -28 -12 -58 -17 -65 -8 -14 -27 -85 -46 -183 -7 -33 -16 -66 -21 -73
-4 -7 -10 -41 -13 -75 -3 -34 -11 -76 -19 -94 -8 -17 -14 -47 -14 -68 0 -20
-6 -48 -14 -63 -7 -15 -16 -47 -20 -72 -4 -24 -11 -49 -15 -55 -5 -5 -11 -34
-14 -64 -4 -29 -11 -58 -16 -65 -5 -6 -12 -29 -16 -51 -4 -22 -12 -45 -16 -51
-5 -6 -12 -33 -15 -60 -4 -27 -13 -59 -20 -71 -8 -12 -14 -34 -14 -49 0 -14
-8 -39 -17 -55 l-17 -29 -191 0 c-104 1 -210 5 -235 11 -25 5 -152 12 -282 16
l-238 6 -19 32 c-10 18 -22 48 -26 66 -4 19 -11 39 -16 45 -5 6 -11 37 -15 70
-4 32 -11 64 -16 71 -5 6 -12 38 -15 70 -3 32 -12 70 -19 85 -8 15 -14 42 -14
60 0 18 -7 46 -15 62 -8 15 -15 44 -15 62 0 19 -6 50 -14 68 -7 18 -17 61 -21
94 -4 34 -11 64 -15 67 -5 3 -12 31 -15 63 -4 31 -13 71 -21 89 -8 17 -14 48
-14 70 0 21 -7 47 -15 57 -8 11 -15 38 -15 60 0 23 -7 50 -15 60 -8 11 -15 34
-15 50 0 17 -6 43 -14 58 -8 14 -17 49 -21 77 -4 28 -11 53 -15 56 -5 3 -12
26 -16 52 -4 25 -13 58 -20 72 -8 14 -14 42 -14 61 0 19 -7 44 -15 54 -8 11
-15 36 -15 55 0 20 -6 47 -13 62 -8 14 -17 49 -20 78 -3 29 -10 58 -16 65 -5
6 -12 39 -16 74 -4 34 -11 64 -15 67 -5 3 -12 34 -15 70 -4 36 -11 68 -15 70
-5 3 -12 31 -16 63 -3 31 -13 69 -20 84 -8 15 -14 40 -14 56 0 17 -7 43 -15
58 -8 16 -15 41 -15 56 0 15 -5 39 -11 55 -11 26 -23 75 -50 203 -6 30 -18 72
-25 93 -8 20 -14 48 -14 61 0 13 -7 37 -15 52 -8 16 -15 43 -15 59 -1 17 -7
41 -15 55 -8 14 -14 39 -15 57 0 17 -5 44 -11 60 -6 15 -17 55 -25 88 -29 130
-39 170 -47 182 -4 7 -11 36 -14 65 -3 29 -10 59 -16 66 -6 7 -14 36 -18 64
-5 28 -12 54 -17 57 -5 3 -12 32 -16 64 -4 31 -11 57 -15 57 -5 0 -11 27 -15
60 -4 33 -11 62 -15 65 -5 3 -12 33 -16 67 -4 33 -14 76 -21 94 -8 18 -14 50
-14 69 0 20 -5 46 -12 58 -6 12 -15 47 -19 77 -4 30 -13 56 -18 58 -6 2 -11
19 -11 38 0 19 -6 49 -14 67 -7 18 -16 55 -20 82 -5 28 -12 55 -17 61 -5 6
-12 33 -15 60 -4 27 -11 54 -15 60 -5 6 -12 33 -15 60 -4 27 -13 61 -20 76 -8
15 -14 43 -14 63 0 20 -6 48 -14 63 -7 15 -16 50 -19 79 -3 28 -10 60 -15 70
-6 10 -15 47 -21 83 -19 107 -37 183 -49 213 -7 16 -12 45 -12 65 -1 20 -7 48
-15 62 -8 14 -14 43 -15 65 0 22 -6 49 -14 60 -7 11 -16 44 -19 74 -4 29 -10
58 -15 65 -5 6 -13 37 -16 68 -4 32 -11 60 -16 63 -5 3 -12 31 -15 63 -4 31
-13 76 -21 100 -8 23 -14 58 -14 77 0 19 -7 60 -15 92 -8 31 -15 76 -15 99 0
25 -6 47 -15 54 -8 7 -15 18 -15 25 0 12 -55 71 -161 172 -63 59 -129 133
-129 144 0 5 -7 9 -15 9 -8 0 -15 5 -15 12 0 14 -135 148 -150 148 -5 0 -10 7
-10 15 0 8 -4 15 -10 15 -13 0 -90 77 -90 90 0 6 -7 10 -15 10 -8 0 -15 7 -15
15 0 8 -7 15 -15 15 -8 0 -15 4 -15 10 0 5 -23 33 -50 61 -28 28 -50 54 -50
58 0 4 -15 22 -33 41 -64 69 -64 68 -32 96 22 19 39 24 81 24 29 0 65 -5 81
-12 33 -14 186 -34 368 -47 72 -6 374 -10 673 -10 616 -1 592 2 592 -75 0 -22
7 -54 15 -70 8 -15 15 -45 15 -66 0 -22 5 -51 11 -67 6 -15 18 -56 25 -90 8
-35 21 -91 29 -125 8 -35 20 -88 26 -118 6 -30 18 -72 25 -93 8 -20 14 -54 14
-75 1 -20 7 -48 15 -62 8 -14 14 -40 15 -58 0 -18 7 -48 15 -67 7 -19 17 -62
21 -95 4 -33 10 -63 15 -65 4 -3 11 -36 14 -73 4 -37 11 -72 16 -77 4 -6 11
-42 15 -80 4 -38 13 -80 21 -94 7 -14 13 -45 13 -69 0 -23 7 -59 15 -79 8 -19
15 -50 15 -69 0 -18 6 -53 14 -76 8 -24 17 -67 21 -95 4 -29 11 -55 15 -58 4
-3 11 -29 15 -58 4 -28 13 -71 21 -95 8 -23 14 -56 14 -71 0 -16 7 -42 15 -57
8 -16 15 -47 15 -69 0 -22 6 -60 14 -85 14 -44 27 -102 47 -210 5 -30 14 -62
19 -71 4 -9 11 -42 15 -75 4 -32 11 -64 16 -70 5 -6 12 -33 15 -60 3 -27 12
-66 20 -87 8 -20 14 -50 14 -65 0 -15 7 -40 15 -56 8 -15 15 -43 15 -62 0 -18
6 -53 14 -76 8 -24 17 -68 21 -98 4 -30 11 -59 15 -65 4 -5 13 -41 19 -80 22
-145 33 -201 47 -233 8 -18 14 -53 14 -78 0 -25 6 -57 14 -72 7 -15 16 -53 19
-85 3 -32 10 -64 15 -70 6 -7 13 -42 17 -80 4 -37 11 -70 15 -72 5 -3 12 -31
16 -62 3 -31 13 -68 20 -82 8 -14 14 -39 14 -56 1 -16 7 -41 15 -55 8 -14 14
-39 15 -56 0 -16 7 -39 15 -50 8 -10 15 -32 15 -49 0 -16 7 -43 15 -59 8 -15
15 -34 15 -40 0 -15 36 -135 56 -189 8 -20 14 -50 14 -65 0 -15 5 -33 11 -39
6 -6 14 -37 18 -69 3 -32 11 -59 16 -61 15 -5 43 54 51 107 3 25 9 50 13 55 3
6 11 33 18 60 21 93 35 140 49 167 8 14 14 38 14 53 0 14 6 38 14 53 7 15 16
48 19 74 4 26 11 56 16 65 6 10 13 39 16 65 3 26 10 50 15 53 5 3 12 31 16 63
3 31 11 62 16 68 5 7 11 36 15 65 3 30 12 63 19 74 8 11 14 39 14 63 0 24 5
53 11 64 6 12 15 53 20 91 5 39 13 73 18 76 5 3 12 34 16 69 4 34 11 62 15 62
4 0 11 28 15 63 4 34 12 65 18 68 5 4 12 31 15 60 3 30 11 63 18 74 8 11 14
36 14 55 0 20 7 45 15 56 8 10 15 33 15 49 0 17 6 42 14 57 8 14 17 45 21 67
4 23 10 43 15 46 4 3 11 26 15 52 4 27 11 53 16 59 5 6 13 31 18 55 5 24 14
58 19 74 16 47 32 115 44 180 5 33 14 64 19 69 5 6 9 27 9 48 0 20 6 57 14 80
8 24 19 66 25 93 23 110 39 172 50 193 6 11 11 30 11 42 0 12 6 36 14 53 12
30 22 64 47 162 6 22 14 48 19 57 6 9 13 36 16 60 4 24 13 55 20 70 8 15 14
40 14 56 0 17 7 43 15 58 8 16 15 46 15 67 0 21 6 50 14 65 7 15 16 49 20 76
3 27 10 54 15 60 5 6 12 39 16 74 4 34 11 64 15 67 4 3 11 29 15 58 4 28 12
57 17 64 5 7 13 36 18 65 4 29 12 67 18 83 16 46 33 115 42 173 5 29 13 58 18
65 5 7 13 40 17 75 4 34 11 64 15 67 4 3 11 28 15 56 4 28 13 63 21 77 8 15
14 38 14 53 0 14 5 30 11 36 7 7 16 36 20 65 5 29 13 54 19 56 5 2 10 22 10
45 0 23 6 54 14 68 7 14 16 50 20 80 4 29 11 56 17 59 5 4 12 28 15 56 8 56
19 74 45 74 14 0 19 -7 19 -30z m9220 -220 c41 -5 633 -9 1316 -9 1202 -1
1241 -2 1258 -20 15 -17 15 -20 1 -34 -8 -9 -15 -19 -15 -24 -1 -4 -12 -17
-26 -28 -42 -33 -177 -168 -209 -209 -56 -71 -90 -110 -115 -130 -59 -49 -184
-181 -213 -227 -16 -24 -18 -151 -25 -1595 -9 -1910 -9 -1632 2 -2761 6 -655
12 -949 20 -964 9 -18 60 -53 126 -86 8 -4 27 -19 42 -35 15 -15 31 -28 35
-28 4 0 33 -23 63 -51 l55 -50 410 6 c403 6 1238 -7 1323 -21 28 -4 48 -2 55
5 6 6 17 11 25 11 15 0 38 19 152 128 42 39 79 72 83 72 4 0 17 10 28 21 l22
22 -6 656 c-3 361 -8 667 -11 681 -12 44 -7 2472 5 2650 8 123 8 199 -1 300
-7 74 -16 414 -20 755 -7 610 -10 664 -41 701 -6 8 -13 49 -16 92 -4 69 -2 80
19 104 l23 27 420 13 c456 14 530 15 1040 9 187 -2 406 0 488 4 133 7 147 6
147 -9 0 -14 -31 -50 -172 -198 -27 -27 -48 -53 -48 -58 0 -5 -6 -13 -13 -17
-7 -4 -20 -20 -29 -34 -9 -15 -127 -137 -262 -271 -135 -135 -246 -250 -246
-257 0 -6 -7 -11 -15 -11 -8 0 -15 -7 -15 -15 0 -8 -5 -15 -10 -15 -6 0 -40
-29 -76 -65 -62 -60 -66 -66 -59 -97 3 -18 10 -136 15 -263 5 -126 14 -282 20
-347 6 -74 10 -710 11 -1760 0 -903 4 -1944 8 -2313 5 -430 4 -678 -2 -692 -5
-12 -23 -26 -38 -32 -16 -5 -29 -15 -29 -20 0 -6 -7 -11 -15 -11 -9 0 -18 -7
-21 -15 -4 -8 -11 -15 -18 -15 -6 0 -28 -16 -49 -35 -21 -19 -40 -35 -43 -35
-2 0 -25 -20 -50 -45 -24 -25 -47 -45 -49 -45 -5 0 -113 -99 -129 -118 -21
-25 -44 -47 -131 -127 -48 -44 -104 -96 -125 -115 -50 -47 -103 -92 -130 -110
-12 -8 -28 -20 -34 -25 -41 -37 -105 -85 -113 -85 -6 0 -13 -7 -17 -15 -3 -8
-12 -15 -21 -15 -8 0 -15 -4 -15 -8 0 -5 -21 -23 -47 -40 -27 -17 -61 -43 -77
-57 -16 -14 -35 -25 -43 -25 -7 0 -16 -7 -19 -15 -4 -8 -11 -15 -16 -15 -6 0
-16 -7 -22 -15 -10 -13 -143 -15 -1122 -17 l-1111 -1 -64 62 c-35 33 -67 61
-70 61 -4 0 -37 29 -74 65 -36 36 -68 65 -70 65 -2 0 -41 36 -86 80 -45 44
-86 80 -90 80 -4 0 -30 22 -58 50 -28 27 -56 50 -61 50 -6 0 -10 7 -10 15 0 8
-7 15 -15 15 -8 0 -15 7 -15 15 0 8 -4 15 -10 15 -5 0 -32 21 -59 48 -27 26
-62 57 -78 69 -15 12 -49 42 -74 67 -26 25 -49 46 -52 46 -3 0 -40 34 -82 75
-41 41 -79 75 -83 75 -4 0 -15 8 -23 18 -19 20 -57 52 -64 52 -2 0 -29 24 -60
53 l-56 52 4 2610 c3 2144 6 2618 17 2657 l13 47 -81 80 c-45 44 -82 85 -82
91 0 5 -5 10 -10 10 -10 0 -67 57 -105 104 -11 14 -26 25 -32 26 -7 0 -13 7
-13 15 0 8 -7 15 -15 15 -8 0 -15 7 -15 15 0 8 -7 15 -15 15 -8 0 -15 7 -15
15 0 8 -4 15 -9 15 -13 0 -411 397 -411 410 0 5 -7 10 -15 10 -8 0 -15 4 -15
10 0 10 -135 150 -145 150 -3 0 -19 14 -35 30 -16 17 -34 30 -40 30 -14 0 -13
27 2 32 6 2 34 0 62 -4 28 -5 85 -13 126 -18z m-1472 -73 c19 -18 42 -40 51
-49 8 -10 19 -18 23 -18 4 0 34 -27 67 -60 33 -33 63 -60 65 -60 5 0 100 -88
213 -197 35 -35 68 -63 74 -63 5 0 9 -6 9 -12 1 -7 12 -22 26 -33 14 -11 54
-48 90 -82 35 -35 68 -63 74 -63 5 0 10 -7 10 -15 0 -8 7 -15 15 -15 8 0 15
-7 15 -15 0 -8 4 -15 10 -15 5 0 40 -29 77 -65 37 -36 70 -65 74 -65 6 0 58
-45 115 -100 17 -17 35 -30 40 -30 13 0 74 -59 75 -73 0 -7 2 -212 3 -457 2
-245 8 -600 14 -790 6 -190 9 -360 5 -377 -5 -31 -7 -33 -49 -33 -23 0 -69 -7
-101 -15 -78 -20 -1093 -23 -1093 -2 0 6 0 319 0 693 0 476 4 691 11 714 10
27 9 34 -7 49 -17 16 -32 17 -144 9 -69 -4 -541 -7 -1050 -7 -509 1 -940 1
-957 0 -29 -1 -33 -4 -33 -29 0 -15 -4 -32 -9 -37 -5 -6 -12 -426 -15 -995 -4
-542 -9 -1010 -12 -1040 -13 -135 -38 -169 -124 -170 -32 0 -63 -7 -74 -15
-11 -8 -32 -15 -47 -15 -14 0 -32 -7 -39 -15 -7 -8 -23 -15 -35 -15 -12 0 -34
-9 -48 -20 -14 -11 -30 -20 -36 -20 -6 0 -11 -4 -11 -9 0 -5 -13 -12 -30 -16
-16 -4 -30 -10 -30 -15 0 -4 -12 -13 -27 -19 -16 -6 -53 -25 -83 -41 -30 -16
-61 -30 -67 -30 -7 0 -13 -4 -13 -9 0 -5 -15 -13 -32 -16 -18 -4 -36 -13 -40
-19 -5 -7 -46 -11 -118 -10 -137 2 -217 23 -226 60 -4 13 -12 28 -18 32 -31
18 -38 204 -47 1227 -5 561 -12 1112 -16 1224 -8 194 -7 205 12 232 11 16 29
32 40 35 24 8 95 64 153 121 23 24 44 43 47 43 2 0 31 26 63 58 32 31 83 78
113 103 30 26 73 65 97 88 24 23 44 41 46 41 2 0 60 56 130 125 69 69 128 125
131 125 3 0 21 16 41 35 19 19 39 35 43 35 4 0 29 20 55 45 27 25 50 45 52 45
1 0 39 35 84 78 45 42 89 80 98 84 9 3 516 4 1126 1 l1108 -4 36 -32z m-2293
-4221 c17 -12 18 -28 12 -307 -4 -162 -10 -565 -14 -897 -7 -685 -10 -652 66
-652 26 0 55 -6 66 -14 11 -7 32 -16 48 -20 15 -3 27 -11 27 -16 0 -5 16 -12
35 -16 19 -3 35 -10 35 -15 0 -5 372 -9 878 -9 756 0 887 2 952 16 41 8 78 21
82 27 4 7 8 262 8 568 0 312 4 569 9 585 5 16 12 46 16 67 l6 39 52 -6 c126
-13 673 -27 889 -22 l238 5 6 -25 c9 -35 -1 -1458 -10 -1472 -4 -7 -13 -12
-19 -12 -7 0 -36 -21 -64 -48 -51 -45 -67 -59 -162 -140 -24 -20 -59 -52 -78
-69 -18 -18 -38 -33 -43 -33 -6 0 -10 -7 -10 -15 0 -8 -7 -15 -15 -15 -8 0
-15 -7 -15 -15 0 -8 -4 -15 -9 -15 -5 0 -77 -66 -159 -147 -82 -82 -166 -161
-186 -178 -20 -16 -52 -45 -71 -62 -20 -18 -38 -33 -41 -33 -2 0 -18 -13 -34
-30 -16 -16 -34 -30 -40 -30 -5 0 -10 -7 -10 -15 0 -8 -5 -15 -11 -15 -6 0
-21 -8 -34 -17 -12 -10 -33 -25 -45 -33 -12 -8 -32 -25 -45 -36 -13 -12 -37
-28 -54 -35 -17 -8 -31 -20 -31 -26 0 -7 -8 -13 -17 -13 -10 0 -501 0 -1090
-1 l-1073 0 -30 22 c-16 13 -30 26 -30 31 0 4 -7 8 -15 8 -8 0 -15 7 -15 15 0
8 -5 15 -10 15 -6 0 -23 12 -38 28 -15 15 -40 38 -57 50 -16 13 -61 53 -98 88
-37 35 -70 64 -72 64 -3 0 -25 20 -49 45 -25 25 -49 45 -54 45 -4 0 -23 16
-42 35 -19 19 -38 35 -42 35 -4 0 -50 42 -102 93 -52 50 -106 101 -120 112
-14 11 -25 26 -26 33 0 6 -7 12 -15 12 -8 0 -15 7 -15 15 0 8 -7 15 -15 15 -8
0 -15 7 -15 15 0 8 -4 15 -10 15 -12 0 -60 48 -60 60 0 6 -7 10 -15 10 -8 0
-15 7 -15 15 0 8 -7 15 -15 15 -8 0 -15 7 -15 15 0 8 -5 15 -10 15 -16 0 -180
167 -180 182 0 8 -6 22 -14 33 -10 16 -15 103 -20 385 -4 201 -11 395 -17 433
-5 37 -9 121 -10 186 l0 119 36 36 c19 20 38 36 40 36 9 0 145 141 145 150 0
6 7 10 15 10 8 0 15 7 15 15 0 8 4 15 8 15 4 0 30 21 58 48 27 26 81 72 119
102 39 30 72 57 75 60 10 10 69 50 75 50 3 0 18 13 34 29 15 16 37 32 49 35
11 4 23 13 26 21 3 8 10 15 16 15 6 0 18 6 26 13 33 28 41 33 82 61 23 16 42
33 42 37 0 5 7 9 15 9 7 0 18 6 22 13 4 6 27 25 51 41 23 16 42 33 42 37 0 5
5 9 10 9 6 0 18 8 28 18 10 9 29 24 42 32 12 8 28 21 36 28 11 11 50 30 65 31
3 1 14 -5 24 -13z"/>
</g>
</svg>
